<svg width="71" height="64" viewBox="0 0 71 64" fill="none" xmlns="http://www.w3.org/2000/svg">
<path d="M47.2143 47.0714V55.7857C47.2143 56.9413 46.7026 58.0496 45.7917 58.8667C44.8808 59.6838 43.6453 60.1429 42.3571 60.1429H8.35714C7.06895 60.1429 5.83352 59.6838 4.92262 58.8667C4.01173 58.0496 3.5 56.9413 3.5 55.7857V7.85714C3.5 6.70156 4.01173 5.5933 4.92262 4.77618C5.83352 3.95905 7.06895 3.5 8.35714 3.5H42.3571C43.6453 3.5 44.8808 3.95905 45.7917 4.77618C46.7026 5.5933 47.2143 6.70156 47.2143 7.85714V16.5714" stroke="#E25E1B" stroke-width="7" stroke-linecap="round" stroke-linejoin="round"/>
<path d="M32.6428 31.8214H66.6428" stroke="#E25E1B" stroke-width="7" stroke-linecap="round" stroke-linejoin="round"/>
<path d="M56.9286 23.1072L66.6429 31.8215L56.9286 40.5357" stroke="#E25E1B" stroke-width="7" stroke-linecap="round" stroke-linejoin="round"/>
</svg>

